<svg xmlns="http://www.w3.org/2000/svg" version="1.1" xmlns:xlink="http://www.w3.org/1999/xlink" xmlns:svgjs="http://svgjs.dev/svgjs" width="1440" height="675" preserveAspectRatio="none" viewBox="0 0 1440 675"><g mask="url(&quot;#SvgjsMask3018&quot;)" fill="none"><rect width="1440" height="675" x="0" y="0" fill="url(&quot;#SvgjsLinearGradient3019&quot;)"></rect><path d="M169 299.59C145.51 299.59 125.1 318.98 125.1 338C125.1 356.75 145.57 375.14 169 375.14C198.25 375.14 230.45 356.8 230.45 338C230.45 319.03 198.18 299.59 169 299.59" stroke="rgba(54, 201, 194, 0.2)" stroke-width="2"></path><path d="M507 290.33C469.83 291.47 442.54 304.36 441.77 338C440.06 412.7 478.36 421.14 502.03 507C510.97 539.44 504.46 574.6 507 574.6C509.54 574.6 493.07 533.2 512.2 507C577.57 417.5 581.33 376.32 676 343.2C747.73 318.11 759.01 381.6 845 390.58C928.01 399.25 932.77 395.91 1014 378.49C1055.38 369.62 1090.22 358.85 1090.22 338C1090.22 316.77 1055.93 301.55 1014 294.33C933.32 280.43 928.61 286.73 845 295.75C759.61 304.97 760.21 332.16 676 330.81C591.21 329.45 586.95 287.88 507 290.33" stroke="rgba(54, 201, 194, 0.2)" stroke-width="2"></path><path d="M69.45 169C64.04 94.56 105.37 77 150.73 0C155.15 -7.5 159.87 0 169 0C188.88 0 196.83 -14.14 208.76 0C268.08 70.36 322.34 100.36 311.49 169C302.46 226.15 236.78 251.58 169 251.58C115.76 251.58 73.18 220.35 69.45 169" stroke="rgba(54, 201, 194, 0.2)" stroke-width="2"></path><path d="M372.67 169C350.72 105.09 379.81 57.96 425.88 0C446.97 -26.54 466.44 0 507 0C547.56 0 552.3 -14.11 588.12 0C636.8 19.18 626.84 43.25 676 66.58C755.28 104.2 768.91 137.99 845 121.9C926.31 104.7 915.49 54.32 990.8 0C999.99 -6.63 1002.4 0 1014 0C1098.5 0 1098.5 0 1183 0C1267.5 0 1267.5 0 1352 0C1436.5 0 1478.75 -42.25 1521 0C1563.25 42.25 1521 84.5 1521 169C1521 182.8 1531.86 189.66 1521 196.59C1447.36 243.55 1437.51 238.97 1352 276.77C1277.56 309.68 1265.91 296.85 1201.11 338C1181.41 350.51 1190.18 384.09 1183 384.09C1176.16 384.09 1173.06 361 1173.06 338C1173.06 316.83 1178.16 316.91 1183 295.75C1197.48 232.41 1211.7 228.61 1211.7 169C1211.7 149.39 1197.58 137.31 1183 137.31C1168.02 137.31 1170.88 157.14 1152.58 169C1086.38 211.91 1088.07 234.5 1014 246.85C934.28 260.15 929.7 221.79 845 220.3C760.7 218.82 760.8 236.93 676 240.91C591.8 244.86 587.32 255.21 507 236.17C435.65 219.26 391.28 223.17 372.67 169" stroke="rgba(54, 201, 194, 0.2)" stroke-width="2"></path><path d="M0 250.77C19.74 250.77 70.23 296.93 70.23 338C70.23 373.13 20.9 403.16 0 403.16C-14.22 403.16 0 370.58 0 338C0 294.38 -15.38 250.77 0 250.77" stroke="rgba(54, 201, 194, 0.2)" stroke-width="2"></path><path d="M307.27 338C339.33 304.33 322.88 244.11 338 244.11C353.07 244.11 349.88 292.15 367.65 338C400.83 423.59 438.25 421.93 439.9 507C441.53 590.93 416.68 605.57 374.21 676C365.73 690.07 356.11 676 338 676C253.5 676 253.5 676 169 676C141.84 676 124.34 696.37 114.68 676C84.27 611.87 72.74 582.49 88.86 507C99.9 455.28 123.1 457.08 169 421.57C232.31 372.58 254.83 393.06 307.27 338" stroke="rgba(54, 201, 194, 0.2)" stroke-width="2"></path><path d="M577.2 507C577.2 451.23 618.46 413.04 676 408.2C752.36 401.78 759.25 480.84 845 484.47C928.25 487.99 932.76 416.67 1014 422.5C1089.69 427.93 1158.86 453.29 1158.86 507C1158.86 576.66 1088.78 591.54 1014 669.24C1007.46 676.04 1005.66 675.62 996.21 676C921.16 679 920.61 676 845 676C760.5 676 760.5 676 676 676C676 676 676 676 676 676C626.6 591.5 577.2 585.13 577.2 507" stroke="rgba(54, 201, 194, 0.2)" stroke-width="2"></path><path d="M1250.6 507C1264.92 462.05 1297.26 465.77 1352 452.19C1432.46 432.22 1460.47 420.27 1521 439.9C1544.97 447.67 1521 473.45 1521 507C1521 591.5 1563.25 633.75 1521 676C1478.75 718.25 1436.5 676 1352 676C1316.36 676 1295.6 700.79 1280.73 676C1244.9 616.29 1229.28 573.95 1250.6 507" stroke="rgba(54, 201, 194, 0.2)" stroke-width="2"></path><path d="M127.33 169C127.33 134.09 144.99 91 169 91C195.65 91 228.65 135.93 228.65 169C228.65 192.22 197.38 203.57 169 203.57C146.72 203.57 127.33 190.37 127.33 169" stroke="rgba(54, 201, 194, 0.2)" stroke-width="2"></path><path d="M481 169C481 146.72 485.85 115.63 507 115.63C544.94 115.63 599.18 151.29 599.18 169C599.18 184.48 552.03 182 507 182C492.94 182 481 179.91 481 169" stroke="rgba(54, 201, 194, 0.2)" stroke-width="2"></path><path d="M901.33 169C901.33 139.23 964.88 89.47 1014 89.47C1048.25 89.47 1068.08 135.59 1068.08 169C1068.08 190.55 1042.94 199.38 1014 199.38C959.56 199.38 901.33 194.19 901.33 169" stroke="rgba(54, 201, 194, 0.2)" stroke-width="2"></path><path d="M1183 49.29C1145.67 49.29 1109.06 13.45 1109.06 0C1109.06 -11.19 1146.03 0 1183 0C1222.43 0 1261.87 -11.31 1261.87 0C1261.87 13.34 1222.07 49.29 1183 49.29" stroke="rgba(54, 201, 194, 0.2)" stroke-width="2"></path><path d="M1291.42 169C1291.42 128.21 1317.39 77.26 1352 77.26C1392.28 77.26 1441.19 130.29 1441.19 169C1441.19 199.43 1394.56 215.54 1352 215.54C1319.68 215.54 1291.42 197.35 1291.42 169" stroke="rgba(54, 201, 194, 0.2)" stroke-width="2"></path><path d="M1521 17.79C1515.44 17.79 1502.22 5.15 1502.22 0C1502.22 -3.74 1516.18 -4.57 1521 0C1525.57 4.33 1524.83 17.79 1521 17.79" stroke="rgba(54, 201, 194, 0.2)" stroke-width="2"></path><path d="M0 318.92C4.32 318.92 15.36 329.02 15.36 338C15.36 345.68 4.57 352.25 0 352.25C-3.11 352.25 0 345.13 0 338C0 328.46 -3.36 318.92 0 318.92" stroke="rgba(54, 201, 194, 0.2)" stroke-width="2"></path><path d="M132.41 507C132.41 483.9 145.02 478.18 169 468C247.81 434.56 270.46 407.15 338 419.77C374.84 426.65 377.76 463.86 377.76 507C377.76 546.1 373.3 568.04 338 584.26C268.92 616 233.09 627.01 169 602.92C130.3 588.38 132.41 551.36 132.41 507" stroke="rgba(54, 201, 194, 0.2)" stroke-width="2"></path><path d="M642.2 507C642.2 487.92 656.3 473.2 676 473.2C707.53 473.2 744.66 485.92 744.66 507C744.66 531.73 705.34 564.82 676 564.82C654.11 564.82 642.2 533.73 642.2 507" stroke="rgba(54, 201, 194, 0.2)" stroke-width="2"></path><path d="M921.45 507C921.45 480.09 968.9 466.51 1014 466.51C1049.88 466.51 1083.41 481.26 1083.41 507C1083.41 540.38 1051.49 584.74 1014 584.74C970.51 584.74 921.45 539.2 921.45 507" stroke="rgba(54, 201, 194, 0.2)" stroke-width="2"></path><path d="M1498.47 507C1508.32 501.14 1511.73 502.03 1521 502.03C1523 502.03 1521 504.51 1521 507C1521 591.5 1563.25 633.75 1521 676C1478.75 718.25 1436.5 676 1352 676C1341.82 676 1331.64 683.74 1331.64 676C1331.64 647 1326.67 628.18 1352 602.52C1410.09 543.68 1423.82 551.39 1498.47 507" stroke="rgba(54, 201, 194, 0.2)" stroke-width="2"></path></g><defs><mask id="SvgjsMask3018"><rect width="1440" height="675" fill="#ffffff"></rect></mask><linearGradient x1="86.72%" y1="-28.33%" x2="13.28%" y2="128.33%" gradientUnits="userSpaceOnUse" id="SvgjsLinearGradient3019"><stop stop-color="rgba(224, 240, 244, 1)" offset="0.21"></stop><stop stop-color="rgba(255, 255, 255, 1)" offset="1"></stop></linearGradient></defs></svg>