<svg xmlns="http://www.w3.org/2000/svg" version="1.1" xmlns:xlink="http://www.w3.org/1999/xlink" xmlns:svgjs="http://svgjs.dev/svgjs" width="1440" height="560" preserveAspectRatio="none" viewBox="0 0 1440 560"><g mask="url(&quot;#SvgjsMask1005&quot;)" fill="none"><path d="M692.81 650.89C876.15 601.52 934.01 100.3 1209.43 94.2 1484.86 88.1 1589.83 265.5 1726.06 267.8" stroke="rgba(162, 215, 74, 0.41)" stroke-width="2"></path><path d="M384.8 665.6C507.54 645.73 455.86 357.41 767.14 347.52 1078.42 337.63 1336.08 180.51 1531.81 179.52" stroke="rgba(162, 215, 74, 0.41)" stroke-width="2"></path><path d="M268.47 588.58C432.06 588.28 580.3 490.75 915 487.75 1249.7 484.75 1388.61 245.48 1561.53 241.35" stroke="rgba(162, 215, 74, 0.41)" stroke-width="2"></path><path d="M440.1 571.2C615.99 555.79 735.87 193.92 1036.92 193.57 1337.97 193.22 1474.89 408.58 1633.74 411.97" stroke="rgba(162, 215, 74, 0.41)" stroke-width="2"></path><path d="M508.57 627.83C624.52 617.7 700.34 380.22 902.12 379.1 1103.9 377.98 1098.9 449.1 1295.67 449.1 1492.44 449.1 1589.29 379.37 1689.22 379.1" stroke="rgba(162, 215, 74, 0.41)" stroke-width="2"></path></g><defs><mask id="SvgjsMask1005"><rect width="1440" height="560" fill="#ffffff"></rect></mask></defs></svg>