<svg xmlns="http://www.w3.org/2000/svg" version="1.1" xmlns:xlink="http://www.w3.org/1999/xlink" xmlns:svgjs="http://svgjs.dev/svgjs" width="1439" height="567" preserveAspectRatio="none" viewBox="0 0 1439 567"><g mask="url(&quot;#SvgjsMask1006&quot;)" fill="none"><path d="M-214.46 535.11C-105.22 535.35 1.14 605.98 216.73 605.98 432.33 605.98 431.89 535.08 647.92 535.11 863.95 535.14 966.85 659.29 1079.11 660.56" stroke="rgba(162, 215, 74, 0.67)" stroke-width="2"></path><path d="M-81.37 165.48C31.8 165.7 142.17 236.36 365.72 236.36 589.26 236.36 568.47 156.75 812.8 165.48 1057.14 174.21 1103.25 592.62 1259.89 632.44" stroke="rgba(162, 215, 74, 0.67)" stroke-width="2"></path><path d="M-50.55 67.12C132.98 71.47 348.33 313.77 635.92 327.94 923.51 342.11 873.08 569.66 979.15 583.12" stroke="rgba(162, 215, 74, 0.67)" stroke-width="2"></path><path d="M-5.51 329C136.75 327.4 255.16 166.49 540.96 170.24 826.76 173.99 906.52 629.82 1087.43 664.62" stroke="rgba(162, 215, 74, 0.67)" stroke-width="2"></path><path d="M-79.68 459.69C84.93 457.13 307.02 254.67 546.39 255.57 785.76 256.47 741.22 605.19 859.42 646.44" stroke="rgba(162, 215, 74, 0.67)" stroke-width="2"></path></g><defs><mask id="SvgjsMask1006"><rect width="1439" height="567" fill="#ffffff"></rect></mask></defs></svg>